<?xml version="1.0" encoding="utf-8"?>
<svg viewBox="135.081 257.491 239.39 86.818" xmlns="http://www.w3.org/2000/svg">
  <path d="M 135.081 271.33 C 135.081 269.713 135.472 267.183 136.252 265.739 C 137.034 264.295 139.108 262.044 140.475 260.985 C 141.843 259.927 143.442 259.079 145.272 258.444 C 147.104 257.809 150.045 257.491 152.095 257.491 L 209.078 257.491 C 211.129 257.491 214.021 257.73 215.851 258.365 C 217.683 259 220.093 260.451 221.46 261.509 C 222.828 262.568 224.664 265.057 225.444 266.501 C 226.226 267.945 226.092 269.713 226.092 271.33 L 226.092 284.015 L 207.078 284.015 L 207.078 273.33 L 154.095 273.33 L 154.095 328.469 L 207.078 328.469 L 207.078 317.843 L 226.092 317.843 L 226.092 330.469 C 226.092 332.087 225.702 333.617 224.92 335.061 C 224.14 336.505 222.432 339.211 221.064 340.288 C 219.697 341.366 216.732 342.769 214.9 343.385 C 213.07 344.001 211.129 344.309 209.078 344.309 L 152.095 344.309 C 150.045 344.309 146.994 343.922 145.162 343.306 C 143.332 342.69 141.477 341.445 140.109 340.367 C 138.742 339.29 136.955 336.901 136.173 335.457 C 135.393 334.013 135.081 332.087 135.081 330.469 L 135.081 271.33 Z M 322.666 257.491 L 322.666 344.309 L 303.651 344.309 L 303.651 308.848 L 247.52 308.848 L 247.52 344.309 L 228.505 344.309 L 228.505 257.491 L 247.52 257.491 L 247.52 293.009 L 303.651 293.009 L 303.651 257.491 L 322.666 257.491 Z" style="line-height: 22.614px; stroke-linejoin: round; stroke-miterlimit: 23; white-space: pre; stroke-linecap: round; stroke-width: 19.0101px; fill: rgb(0, 158, 102);"/>
  <path d="M 137.081 236.387 C 137.081 234.336 137.471 232.396 138.252 230.565 C 139.033 228.734 140.108 227.147 141.475 225.804 C 142.842 224.461 144.441 223.387 146.272 222.581 C 148.103 221.776 150.044 221.373 152.095 221.373 L 209.078 221.373 C 211.129 221.373 213.069 221.776 214.9 222.581 C 216.731 223.387 218.331 224.461 219.698 225.804 C 221.065 227.147 222.139 228.734 222.92 230.565 C 223.701 232.396 224.092 234.336 224.092 236.387 L 224.092 249.937 L 209.078 249.937 L 209.078 236.387 L 152.095 236.387 L 152.095 311.387 L 209.078 311.387 L 209.078 297.911 L 224.092 297.911 L 224.092 311.387 C 224.092 313.438 223.701 315.379 222.92 317.21 C 222.139 319.041 221.065 320.64 219.698 322.007 C 218.331 323.374 216.731 324.449 214.9 325.23 C 213.069 326.011 211.129 326.402 209.078 326.402 L 152.095 326.402 C 150.044 326.402 148.103 326.011 146.272 325.23 C 144.441 324.449 142.842 323.374 141.475 322.007 C 140.108 320.64 139.033 319.041 138.252 317.21 C 137.471 315.379 137.081 313.438 137.081 311.387 L 137.081 236.387 Z M 320.666 221.373 L 320.666 326.402 L 305.651 326.402 L 305.651 281.431 L 245.52 281.431 L 245.52 326.402 L 230.505 326.402 L 230.505 221.373 L 245.52 221.373 L 245.52 266.417 L 305.651 266.417 L 305.651 221.373 L 320.666 221.373 Z" style="line-height: 22.614px; stroke-linejoin: round; stroke-miterlimit: 23; white-space: pre; stroke-linecap: round; stroke-width: 19.0101px; fill: rgb(255, 255, 255);" transform="matrix(1, 0, 0, 0.78852, 0, 84.753716)"/>
  <path d="M 374.471 313.071 L 325.967 344.309 L 325.967 330.679 L 364.796 306.223 L 325.967 281.636 L 325.967 268.072 L 374.471 299.31 L 374.471 313.071 Z" style="line-height: 22.614px; paint-order: stroke; stroke-linejoin: round; stroke-miterlimit: 23; white-space: pre; stroke-linecap: round; stroke-width: 22.9301px; fill: rgb(11, 75, 53);"/>
  <path d="M 374.471 302.49 L 325.967 333.728 L 325.967 320.098 L 364.796 295.642 L 325.967 271.055 L 325.967 257.491 L 374.471 288.729 L 374.471 302.49 Z" style="line-height: 22.614px; paint-order: stroke; stroke-linejoin: round; stroke-miterlimit: 23; white-space: pre; stroke-linecap: round; stroke-width: 22.9301px; fill: rgb(0, 158, 102);"/>
</svg>